%TF.GenerationSoftware,KiCad,Pcbnew,9.0.7*%
%TF.CreationDate,2026-03-08T16:08:37+04:00*%
%TF.ProjectId,hackpad,6861636b-7061-4642-9e6b-696361645f70,rev?*%
%TF.SameCoordinates,Original*%
%TF.FileFunction,Profile,NP*%
%FSLAX46Y46*%
G04 Gerber Fmt 4.6, Leading zero omitted, Abs format (unit mm)*
G04 Created by KiCad (PCBNEW 9.0.7) date 2026-03-08 16:08:37*
%MOMM*%
%LPD*%
G01*
G04 APERTURE LIST*
%TA.AperFunction,Profile*%
%ADD10C,0.050000*%
%TD*%
%TA.AperFunction,Profile*%
%ADD11C,0.100000*%
%TD*%
G04 APERTURE END LIST*
D10*
X237512500Y-123759920D02*
G75*
G02*
X234512500Y-123759920I-1500000J0D01*
G01*
X234512500Y-123759920D02*
G75*
G02*
X237512500Y-123759920I1500000J0D01*
G01*
X149012500Y-123759920D02*
G75*
G02*
X146012500Y-123759920I-1500000J0D01*
G01*
X146012500Y-123759920D02*
G75*
G02*
X149012500Y-123759920I1500000J0D01*
G01*
X237012500Y-68759920D02*
G75*
G02*
X234012500Y-68759920I-1500000J0D01*
G01*
X234012500Y-68759920D02*
G75*
G02*
X237012500Y-68759920I1500000J0D01*
G01*
D11*
X149012500Y-68759920D02*
G75*
G02*
X146012500Y-68759920I-1500000J0D01*
G01*
X146012500Y-68759920D02*
G75*
G02*
X149012500Y-68759920I1500000J0D01*
G01*
X144012500Y-65259920D02*
X239012500Y-65259920D01*
X239012500Y-127259920D01*
X144012500Y-127259920D01*
X144012500Y-65259920D01*
%TO.C,D7*%
X221525001Y-101115242D02*
X221525001Y-99709558D01*
X222430548Y-98912400D02*
X224019452Y-98912400D01*
X224019452Y-101912399D02*
X222430547Y-101912399D01*
X224924999Y-99709558D02*
X224924999Y-101115242D01*
X221475516Y-99492680D02*
G75*
G02*
X221525001Y-99709558I-450505J-216876D01*
G01*
X221475516Y-99492681D02*
G75*
G02*
X222178289Y-98844101I450514J216880D01*
G01*
X221525001Y-101115243D02*
G75*
G02*
X221475516Y-101332120I-499990J-1D01*
G01*
X222178289Y-101980698D02*
G75*
G02*
X221475517Y-101332120I-252258J431700D01*
G01*
X222178289Y-101980698D02*
G75*
G02*
X222430547Y-101912399I252261J-431710D01*
G01*
X222430548Y-98912400D02*
G75*
G02*
X222178289Y-98844101I2J500009D01*
G01*
X224019453Y-101912400D02*
G75*
G02*
X224271711Y-101980699I-3J-500010D01*
G01*
X224271710Y-98844101D02*
G75*
G02*
X224019452Y-98912399I-252260J431711D01*
G01*
X224271711Y-98844103D02*
G75*
G02*
X224974481Y-99492679I252259J-431697D01*
G01*
X224924999Y-99709557D02*
G75*
G02*
X224974485Y-99492681I499991J-3D01*
G01*
X224974484Y-101332120D02*
G75*
G02*
X224271710Y-101980700I-450514J-216880D01*
G01*
X224974484Y-101332120D02*
G75*
G02*
X224924981Y-101115242I450516J216920D01*
G01*
%TO.C,D11*%
X183212501Y-120212742D02*
X183212501Y-118807058D01*
X184118048Y-118009900D02*
X185706952Y-118009900D01*
X185706952Y-121009899D02*
X184118047Y-121009899D01*
X186612499Y-118807058D02*
X186612499Y-120212742D01*
X183163016Y-118590180D02*
G75*
G02*
X183212501Y-118807058I-450505J-216876D01*
G01*
X183163016Y-118590181D02*
G75*
G02*
X183865789Y-117941601I450514J216880D01*
G01*
X183212501Y-120212743D02*
G75*
G02*
X183163016Y-120429620I-499990J-1D01*
G01*
X183865789Y-121078198D02*
G75*
G02*
X183163017Y-120429620I-252258J431700D01*
G01*
X183865789Y-121078198D02*
G75*
G02*
X184118047Y-121009899I252261J-431710D01*
G01*
X184118048Y-118009900D02*
G75*
G02*
X183865789Y-117941601I2J500009D01*
G01*
X185706953Y-121009900D02*
G75*
G02*
X185959211Y-121078199I-3J-500010D01*
G01*
X185959210Y-117941601D02*
G75*
G02*
X185706952Y-118009899I-252260J431711D01*
G01*
X185959211Y-117941603D02*
G75*
G02*
X186661981Y-118590179I252259J-431697D01*
G01*
X186612499Y-118807057D02*
G75*
G02*
X186661985Y-118590181I499991J-3D01*
G01*
X186661984Y-120429620D02*
G75*
G02*
X185959210Y-121078200I-450514J-216880D01*
G01*
X186661984Y-120429620D02*
G75*
G02*
X186612481Y-120212742I450516J216920D01*
G01*
%TO.C,D8*%
X221712501Y-120212742D02*
X221712501Y-118807058D01*
X222618048Y-118009900D02*
X224206952Y-118009900D01*
X224206952Y-121009899D02*
X222618047Y-121009899D01*
X225112499Y-118807058D02*
X225112499Y-120212742D01*
X221663016Y-118590180D02*
G75*
G02*
X221712501Y-118807058I-450505J-216876D01*
G01*
X221663016Y-118590181D02*
G75*
G02*
X222365789Y-117941601I450514J216880D01*
G01*
X221712501Y-120212743D02*
G75*
G02*
X221663016Y-120429620I-499990J-1D01*
G01*
X222365789Y-121078198D02*
G75*
G02*
X221663017Y-120429620I-252258J431700D01*
G01*
X222365789Y-121078198D02*
G75*
G02*
X222618047Y-121009899I252261J-431710D01*
G01*
X222618048Y-118009900D02*
G75*
G02*
X222365789Y-117941601I2J500009D01*
G01*
X224206953Y-121009900D02*
G75*
G02*
X224459211Y-121078199I-3J-500010D01*
G01*
X224459210Y-117941601D02*
G75*
G02*
X224206952Y-118009899I-252260J431711D01*
G01*
X224459211Y-117941603D02*
G75*
G02*
X225161981Y-118590179I252259J-431697D01*
G01*
X225112499Y-118807057D02*
G75*
G02*
X225161985Y-118590181I499991J-3D01*
G01*
X225161984Y-120429620D02*
G75*
G02*
X224459210Y-121078200I-450514J-216880D01*
G01*
X225161984Y-120429620D02*
G75*
G02*
X225112481Y-120212742I450516J216920D01*
G01*
%TO.C,D9*%
X202525001Y-120115242D02*
X202525001Y-118709558D01*
X203430548Y-117912400D02*
X205019452Y-117912400D01*
X205019452Y-120912399D02*
X203430547Y-120912399D01*
X205924999Y-118709558D02*
X205924999Y-120115242D01*
X202475516Y-118492680D02*
G75*
G02*
X202525001Y-118709558I-450505J-216876D01*
G01*
X202475516Y-118492681D02*
G75*
G02*
X203178289Y-117844101I450514J216880D01*
G01*
X202525001Y-120115243D02*
G75*
G02*
X202475516Y-120332120I-499990J-1D01*
G01*
X203178289Y-120980698D02*
G75*
G02*
X202475517Y-120332120I-252258J431700D01*
G01*
X203178289Y-120980698D02*
G75*
G02*
X203430547Y-120912399I252261J-431710D01*
G01*
X203430548Y-117912400D02*
G75*
G02*
X203178289Y-117844101I2J500009D01*
G01*
X205019453Y-120912400D02*
G75*
G02*
X205271711Y-120980699I-3J-500010D01*
G01*
X205271710Y-117844101D02*
G75*
G02*
X205019452Y-117912399I-252260J431711D01*
G01*
X205271711Y-117844103D02*
G75*
G02*
X205974481Y-118492679I252259J-431697D01*
G01*
X205924999Y-118709557D02*
G75*
G02*
X205974485Y-118492681I499991J-3D01*
G01*
X205974484Y-120332120D02*
G75*
G02*
X205271710Y-120980700I-450514J-216880D01*
G01*
X205974484Y-120332120D02*
G75*
G02*
X205924981Y-120115242I450516J216920D01*
G01*
%TO.C,D10*%
X202712501Y-101212742D02*
X202712501Y-99807058D01*
X203618048Y-99009900D02*
X205206952Y-99009900D01*
X205206952Y-102009899D02*
X203618047Y-102009899D01*
X206112499Y-99807058D02*
X206112499Y-101212742D01*
X202663016Y-99590180D02*
G75*
G02*
X202712501Y-99807058I-450505J-216876D01*
G01*
X202663016Y-99590181D02*
G75*
G02*
X203365789Y-98941601I450514J216880D01*
G01*
X202712501Y-101212743D02*
G75*
G02*
X202663016Y-101429620I-499990J-1D01*
G01*
X203365789Y-102078198D02*
G75*
G02*
X202663017Y-101429620I-252258J431700D01*
G01*
X203365789Y-102078198D02*
G75*
G02*
X203618047Y-102009899I252261J-431710D01*
G01*
X203618048Y-99009900D02*
G75*
G02*
X203365789Y-98941601I2J500009D01*
G01*
X205206953Y-102009900D02*
G75*
G02*
X205459211Y-102078199I-3J-500010D01*
G01*
X205459210Y-98941601D02*
G75*
G02*
X205206952Y-99009899I-252260J431711D01*
G01*
X205459211Y-98941603D02*
G75*
G02*
X206161981Y-99590179I252259J-431697D01*
G01*
X206112499Y-99807057D02*
G75*
G02*
X206161985Y-99590181I499991J-3D01*
G01*
X206161984Y-101429620D02*
G75*
G02*
X205459210Y-102078200I-450514J-216880D01*
G01*
X206161984Y-101429620D02*
G75*
G02*
X206112481Y-101212742I450516J216920D01*
G01*
%TO.C,D12*%
X183212501Y-101212742D02*
X183212501Y-99807058D01*
X184118048Y-99009900D02*
X185706952Y-99009900D01*
X185706952Y-102009899D02*
X184118047Y-102009899D01*
X186612499Y-99807058D02*
X186612499Y-101212742D01*
X183163016Y-99590180D02*
G75*
G02*
X183212501Y-99807058I-450505J-216876D01*
G01*
X183163016Y-99590181D02*
G75*
G02*
X183865789Y-98941601I450514J216880D01*
G01*
X183212501Y-101212743D02*
G75*
G02*
X183163016Y-101429620I-499990J-1D01*
G01*
X183865789Y-102078198D02*
G75*
G02*
X183163017Y-101429620I-252258J431700D01*
G01*
X183865789Y-102078198D02*
G75*
G02*
X184118047Y-102009899I252261J-431710D01*
G01*
X184118048Y-99009900D02*
G75*
G02*
X183865789Y-98941601I2J500009D01*
G01*
X185706953Y-102009900D02*
G75*
G02*
X185959211Y-102078199I-3J-500010D01*
G01*
X185959210Y-98941601D02*
G75*
G02*
X185706952Y-99009899I-252260J431711D01*
G01*
X185959211Y-98941603D02*
G75*
G02*
X186661981Y-99590179I252259J-431697D01*
G01*
X186612499Y-99807057D02*
G75*
G02*
X186661985Y-99590181I499991J-3D01*
G01*
X186661984Y-101429620D02*
G75*
G02*
X185959210Y-102078200I-450514J-216880D01*
G01*
X186661984Y-101429620D02*
G75*
G02*
X186612481Y-101212742I450516J216920D01*
G01*
%TD*%
M02*
